<?xml version="1.0" standalone="no"?>
<!DOCTYPE svg PUBLIC "-//W3C//DTD SVG 20010904//EN"
 "http://www.w3.org/TR/2001/REC-SVG-20010904/DTD/svg10.dtd">
<svg version="1.0" xmlns="http://www.w3.org/2000/svg"
 width="300.000000pt" height="300.000000pt" viewBox="0 0 300.000000 300.000000"
 preserveAspectRatio="xMidYMid meet">
<metadata>
Created by potrace 1.10, written by Peter Selinger 2001-2011
</metadata>
<g transform="translate(0.000000,300.000000) scale(0.100000,-0.100000)"
fill="#000000" stroke="none">
<path d="M151 2977 c-50 -16 -117 -84 -130 -132 -15 -55 -15 -2634 0 -2689 14
-50 82 -118 135 -134 60 -18 2628 -18 2688 0 53 16 121 84 135 134 8 27 11
451 11 1354 0 1258 -1 1317 -19 1356 -22 49 -78 97 -130 113 -53 15 -2641 14
-2690 -2z m2638 -17 c9 -5 27 -11 41 -14 45 -10 97 -63 119 -122 21 -54 21
-66 21 -1329 l0 -1274 -26 -56 c-31 -64 -73 -101 -140 -121 -70 -21 -2538 -21
-2608 0 -69 21 -115 60 -142 123 l-24 54 0 1282 0 1283 25 51 c13 28 39 63 58
77 73 56 7 53 1386 54 700 0 1281 -3 1290 -8z"/>
<path d="M623 2609 c-58 -11 -116 -42 -158 -86 -46 -47 -59 -73 -75 -145 -39
-175 104 -345 286 -341 82 2 152 33 205 90 58 63 79 114 79 196 0 179 -165
320 -337 286z m158 -52 c117 -57 176 -197 134 -317 -64 -183 -306 -230 -434
-85 -46 53 -61 94 -61 167 1 154 112 263 260 255 36 -1 81 -11 101 -20z"/>
<path d="M1904 1930 c-72 -15 -167 -59 -215 -100 -50 -42 -59 -42 -59 0 0 15
-11 39 -25 54 l-25 27 -200 -3 c-186 -3 -201 -4 -220 -24 -20 -20 -21 -27 -20
-719 0 -607 2 -702 15 -722 15 -23 17 -23 234 -23 209 0 219 1 237 21 18 20
19 43 20 423 1 429 3 455 52 533 38 61 89 86 172 85 41 0 79 -6 98 -16 30 -16
71 -62 88 -101 5 -11 11 -219 14 -461 5 -417 6 -443 24 -463 18 -20 28 -21
236 -21 208 0 218 1 236 21 18 20 19 42 17 485 -1 291 -6 493 -13 541 -16 105
-56 219 -96 274 -98 135 -208 187 -409 194 -66 2 -138 0 -161 -5z m303 -44
c79 -21 140 -56 192 -108 57 -57 93 -125 123 -233 21 -77 22 -101 26 -587 l3
-508 -220 0 -220 0 -3 433 c-4 477 -7 501 -69 571 -89 102 -299 82 -371 -35
-51 -82 -58 -145 -58 -576 l0 -393 -220 0 -220 0 0 713 0 712 211 -2 212 -2
-2 -96 c-1 -52 1 -95 6 -95 4 0 19 19 33 42 43 71 158 145 268 173 68 17 230
13 309 -9z"/>
<path d="M441 1884 c-24 -30 -22 37 -23 -900 -1 -409 2 -506 13 -530 l14 -29
222 -3 221 -2 22 27 22 28 -5 690 c-3 380 -8 697 -11 706 -14 33 -54 39 -256
39 l-199 0 -20 -26z m449 -721 l0 -713 -220 0 -220 0 0 713 0 712 220 0 220 0
0 -712z"/>
</g>
</svg>
